<?xml version="1.0" encoding="iso-8859-1"?>
<!-- Uploaded to: SVG Repo, www.svgrepo.com, Generator: SVG Repo Mixer Tools -->
<svg fill="#000000" height="800px" width="800px" version="1.1" id="Layer_1" xmlns="http://www.w3.org/2000/svg" xmlns:xlink="http://www.w3.org/1999/xlink" 
	 viewBox="0 0 511.999 511.999" xml:space="preserve">
<g>
	<g>
		<path d="M511.405,431.348l-45.597-120.035c-1.341-3.534-4.728-5.869-8.508-5.869h-22.647
			c19.324-15.366,31.748-39.054,31.748-65.603c0-38.893-26.633-71.675-62.617-81.086v-52.865h18.584
			c5.027,0,9.101-4.075,9.101-9.101V47.857c0-5.026-4.074-9.101-9.101-9.101H304.12c-5.027,0-9.101,4.075-9.101,9.101v48.931
			c0,5.026,4.074,9.101,9.101,9.101h18.584v50.145h-87.711v-50.145h13.077c4.027,0,7.577-2.648,8.724-6.509l14.541-48.931
			c0.818-2.753,0.288-5.732-1.429-8.034c-1.718-2.302-4.423-3.659-7.295-3.659H9.101c-2.759,0-5.37,1.252-7.098,3.404
			c-1.727,2.151-2.384,4.972-1.787,7.665l10.842,48.931c0.923,4.167,4.617,7.132,8.885,7.132h12.931l-0.146,328.69
			c0,5.026,4.075,9.101,9.101,9.101h35.381c11.944,17.812,32.259,29.563,55.269,29.563s43.325-11.751,55.269-29.563h118.294
			c11.944,17.812,32.259,29.563,55.269,29.563s43.325-11.751,55.271-29.563h86.316c2.992,0,5.792-1.471,7.492-3.933
			C512.088,437.286,512.468,434.145,511.405,431.348z M313.222,87.687v-30.73h100.047v30.73H313.222z M385.584,105.889v50.145
			h-44.676v-50.145H385.584z M234.995,174.236h147.601c36.174,0,65.603,29.43,65.603,65.603s-29.43,65.603-65.603,65.603H234.995
			V174.236z M27.248,87.687l-6.809-30.73h229.976l-9.131,30.73H27.248z M216.793,105.889v59.246v140.308H51.075V105.889H216.793z
			 M132.479,455.043c-26.633,0-48.302-21.667-48.302-48.302c0-26.634,21.667-48.302,48.302-48.302s48.302,21.667,48.302,48.302
			C180.78,433.376,159.113,455.043,132.479,455.043z M361.313,455.043c-26.633,0-48.302-21.667-48.302-48.302
			c0-26.634,21.667-48.302,48.302-48.302s48.303,21.667,48.303,48.302C409.615,433.376,387.947,455.043,361.313,455.043z
			 M425.111,425.479c1.75-5.947,2.706-12.232,2.706-18.737c0-36.669-29.834-66.503-66.505-66.503s-66.503,29.833-66.503,66.503
			c0,6.507,0.956,12.79,2.705,18.737H196.276c1.75-5.947,2.706-12.232,2.706-18.737c0-36.669-29.833-66.503-66.503-66.503
			s-66.504,29.833-66.504,66.503c0,6.507,0.956,12.79,2.706,18.737H50.93V323.645h400.093l38.683,101.833H425.111z"/>
	</g>
</g>
<g>
	<g>
		<path d="M179.659,132.894H92.436c-5.026,0-9.101,4.075-9.101,9.101v65.417c0,5.026,4.075,9.101,9.101,9.101h87.223
			c5.026,0,9.101-4.075,9.101-9.101v-65.417C188.76,136.968,184.685,132.894,179.659,132.894z M170.558,198.311h-69.021v-47.216
			h69.021V198.311z"/>
	</g>
</g>
</svg>